<svg width="32" height="47" viewBox="0 0 32 47" fill="none" xmlns="http://www.w3.org/2000/svg">
<g clip-path="url(#clip0_564_1913)">
<path d="M15.3864 40.8366C14.4942 39.2777 13.605 37.7574 12.7667 36.2114C12.6764 36.0434 12.8365 35.6775 12.9806 35.4669C15.1011 32.3521 17.242 29.2487 19.3698 26.1382C20.8863 23.9231 20.9154 22.5679 19.3029 20.3414C17.0092 17.1697 14.647 14.0436 12.2791 10.9217C11.9109 10.4348 11.8687 10.0761 12.1612 9.5337C12.9151 8.13575 13.589 6.69083 14.3356 5.18896C15.1448 5.92922 15.9016 6.61253 16.6526 7.31008C20.3532 10.72 24.0499 14.1332 27.7427 17.5498C28.5783 18.341 29.3688 19.1765 30.1106 20.0524C31.5311 21.7024 31.6723 23.4804 30.4876 25.3026C29.961 26.0968 29.355 26.8378 28.6785 27.5148C24.454 31.7855 20.2149 36.0462 15.9613 40.297C15.7939 40.465 15.6149 40.623 15.3864 40.8366Z" stroke="#F7F6F1" stroke-miterlimit="10"/>
<path d="M11.7466 37.2876C12.681 38.667 13.5731 39.9639 14.4318 41.2821C14.4742 41.3767 14.4919 41.48 14.4833 41.5829C14.4746 41.6858 14.4399 41.785 14.3823 41.8715C13.2748 42.9975 12.1629 44.1222 10.9956 45.187C10.5715 45.5399 10.0818 45.8096 9.55333 45.9813C8.84164 46.239 8.14451 46.1038 7.63366 45.5172C7.12282 44.9307 7.13009 44.236 7.46047 43.5798C7.76706 42.9875 8.11525 42.4167 8.50253 41.8715C9.55333 40.3668 10.623 38.8749 11.7466 37.2876Z" stroke="#F7F6F1" stroke-miterlimit="10"/>
<path d="M10.8635 9.04967C9.45318 7.10365 8.10548 5.26725 6.78834 3.39526C6.60389 3.0908 6.48918 2.75081 6.45215 2.39876C6.35172 1.72826 6.49726 1.11043 7.07942 0.674818C7.66158 0.239206 8.3267 0.28476 8.91613 0.629263C9.51372 0.986887 10.0777 1.39563 10.6015 1.85069C11.4747 2.59094 12.332 3.36394 13.1659 4.1526C13.3114 4.29495 13.4439 4.63661 13.3682 4.77185C12.5808 6.16695 11.7498 7.54496 10.8635 9.04967Z" stroke="#F7F6F1" stroke-miterlimit="10"/>
</g>
<g clip-path="url(#clip1_564_1913)">
<path d="M4.90813 32.6714C4.43857 31.8355 3.97055 31.0202 3.52933 30.1912C3.48184 30.1012 3.5661 29.905 3.64193 29.792C4.75799 28.1218 5.88478 26.4576 7.00467 24.7897C7.80284 23.6019 7.81816 22.8752 6.96943 21.6813C5.76222 19.9805 4.519 18.3041 3.27272 16.6301C3.07892 16.369 3.05671 16.1767 3.21068 15.8858C3.60746 15.1362 3.96212 14.3614 4.35508 13.556C4.78097 13.953 5.17929 14.3194 5.57455 14.6934C7.52223 16.5219 9.46786 18.3522 11.4115 20.1843C11.8512 20.6086 12.2673 21.0566 12.6577 21.5263C13.4054 22.411 13.4797 23.3645 12.8561 24.3416C12.579 24.7675 12.26 25.1648 11.904 25.5279C9.68056 27.8179 7.44946 30.1027 5.2107 32.3821C5.12261 32.4722 5.02839 32.5569 4.90813 32.6714Z" stroke="#F7F6F1" stroke-miterlimit="10"/>
<path d="M2.9922 30.7683C3.48398 31.508 3.95353 32.2034 4.40547 32.9103C4.42778 32.961 4.43709 33.0164 4.43254 33.0716C4.42799 33.1268 4.40974 33.18 4.37943 33.2263C3.7965 33.8302 3.21128 34.4332 2.59695 35.0042C2.3737 35.1934 2.11597 35.3381 1.83784 35.4302C1.46327 35.5683 1.09636 35.4958 0.827492 35.1813C0.558627 34.8668 0.562457 34.4943 0.736338 34.1424C0.897701 33.8248 1.08096 33.5187 1.28479 33.2263C1.83784 32.4195 2.40085 31.6195 2.9922 30.7683Z" stroke="#F7F6F1" stroke-miterlimit="10"/>
<path d="M2.52759 15.6263C1.78534 14.5827 1.07602 13.598 0.382794 12.5942C0.285711 12.4309 0.22534 12.2486 0.205848 12.0598C0.152994 11.7003 0.229594 11.369 0.535994 11.1354C0.842393 10.9018 1.19245 10.9262 1.50268 11.111C1.8172 11.3027 2.11404 11.5219 2.38971 11.7659C2.84931 12.1629 3.30048 12.5774 3.7394 13.0003C3.816 13.0766 3.88571 13.2598 3.84587 13.3324C3.43147 14.0804 2.99408 14.8194 2.52759 15.6263Z" stroke="#F7F6F1" stroke-miterlimit="10"/>
</g>
<defs>
<clipPath id="clip0_564_1913">
<rect width="25.5888" height="46.4639" fill="white" transform="translate(6.06055)"/>
</clipPath>
<clipPath id="clip1_564_1913">
<rect width="13.4678" height="24.9154" fill="white" transform="translate(0 10.7736)"/>
</clipPath>
</defs>
</svg>
